<svg xmlns="http://www.w3.org/2000/svg" width="32" height="32" viewBox="0 0 32 32">
    <g fill="none" fill-rule="evenodd" transform="translate(3 8)">
        <path stroke="#4990E2" stroke-linecap="round" stroke-linejoin="round" stroke-width="2" d="M27 15.429c0 .315-.288.571-.643.571H.643C.288 16 0 15.744 0 15.429V.57C0 .256.288 0 .643 0h25.714c.355 0 .643.256.643.571V15.43z"/>
        <rect width="4.889" height="4.444" x="3.778" y="3.889" fill="#4990E2" rx="1"/>
        <path fill="#4990E2" d="M4.111 13.333h-.889a.444.444 0 1 1 0-.889h.89a.444.444 0 1 1 0 .89M6.333 13.333h-.889a.444.444 0 1 1 0-.889h.89a.444.444 0 1 1 0 .89M8.556 13.333h-.89a.444.444 0 1 1 0-.889h.89a.444.444 0 1 1 0 .89M12.556 13.333h-.89a.444.444 0 1 1 0-.889h.89a.444.444 0 1 1 0 .89M14.778 13.333h-.89a.444.444 0 1 1 0-.889h.89a.444.444 0 1 1 0 .89M17 13.333h-.889a.444.444 0 1 1 0-.889H17a.444.444 0 1 1 0 .89M19.556 13.333h-.89a.444.444 0 1 1 0-.889h.89a.444.444 0 1 1 0 .89M21.778 13.333h-.89a.444.444 0 1 1 0-.889h.89a.444.444 0 1 1 0 .89M24 13.333h-.889a.444.444 0 1 1 0-.889H24a.444.444 0 1 1 0 .89" opacity=".718"/>
    </g>
</svg>
