<svg xmlns="http://www.w3.org/2000/svg" width="145" height="60" viewBox="0 0 145 60">
    <g fill="none" fill-rule="evenodd">
        <path fill="#ED1B2F" d="M0 0h145v60H0z"/>
        <path fill="#FFF" d="M70.5 43.8v-.9H68V17.1h.8c3.5 0 4.7 5.3 5 8H75l-.2-8.9h-18l-.2 8.9h1.1c.7-4.9 2.3-8 5.1-8h.7v25.8H61v.9h9.5zM39.8 16.2v.9h2.5v2.5c-3.7-.2-9.7 1.2-9.7 10.7 0 10.4 6.5 10.9 9.7 10.7v2.6h-2.5v.9h9.5v-.9h-2.5V41c3.1.2 9.7-.5 9.7-10.7 0-9.5-6-10.8-9.7-10.7v-2.5h2.5v-.9h-9.5zm7 4.3h.8c3.2 0 3.7 2.9 3.7 4.7v9.7c0 2.6-.6 5.1-3.6 5.1h-1V20.5h.1zM42.3 40h-.7c-3 0-3.8-2.1-3.8-5.1v-9.7c0-4.5 2.8-4.7 3.9-4.7h.7V40h-.1z"/>
        <path fill="#FFF" d="M25.3 42.9h-6.9V17.1h2.1v-.9h-9.1v.9h2.5v25.8h-2.5v.9h15.8c.9 0 3.7-.3 5.3 6.4h.9l-.4-7.3h-3.1V17.1h2.5v-.9h-9.1v.9h2.1v25.8h-.1zM82.4 16.3h-1.3v6.6h3.5v1.4h1.1v-2.4h-.3v-5.6h-1.3v5.6h-1.7v-5.6zm4 0v6.6H90v-1h-2.3v-2h2v-1h-2v-1.5H90v-1h-3.6v-.1zm5.6 0h-1.3v6.6H92v-3h1.6v3h1.3v-6.6h-1.3v2.5H92v-2.5zm6.3 1h1.5v-1h-4.4v1H97v5.6h1.3v-5.6zm3.4 2.9h1.1c1.1 0 1.8-.8 1.8-1.9 0-1.1-.7-1.9-1.8-1.9h-2.4V23h1.3v-2.8zm0-3h.7c.6 0 .9.4.9 1s-.3 1-.9 1h-.7v-2zm-18.2 9.6v.7h-.3c-1.1 0-2.2.8-2.2 2.5 0 1.9 1.1 2.5 2.2 2.5h.3v.8h1.3v-.8h.3c1.1 0 2.2-.7 2.2-2.5 0-1.7-1.1-2.5-2.2-2.5h-.3v-.7h-1.3zm0 4.7h-.3c-.6 0-.9-.5-.9-1.5 0-.8.3-1.5.9-1.5h.3v3zm1.2-3.1h.3c.7 0 1 .7 1 1.5 0 1-.3 1.5-1 1.5h-.3v-3zm3.3-1.6v6.6h1.4l1.9-4.8c-.2.6-.2 1.3-.2 2.3v2.5h1.2v-6.6h-1.4L89 31.5c.1-.5.2-1.5.2-2.3v-2.4H88zm6.4 0h-1.2v6.6h1.2v-3h1.7v3h1.3v-6.6h-1.3v2.5h-1.7v-2.5zm3.4 6.5h1.4l.3-1.8h1.4l.3 1.8h1.4l-1.5-6.6h-1.6l-1.7 6.6zm1.9-2.7l.6-3.1.5 3.1h-1.1zm4.7-3.8h-1.3v6.6h1.3v-3h1.6v3h1.3v-6.6H106v2.5h-1.6v-2.5zm7.8 2.1v-.3c0-1.2-.7-1.9-1.9-1.9-1.3 0-2.1.8-2.1 2.3v2.4c0 1.2.4 2.3 2 2.3s2-1.1 2-2.3V31h-1.3v.3c0 .8-.3 1.2-.8 1.2s-.7-.3-.7-1.2v-2.6c0-.8.2-1.1.7-1.1.6 0 .8.3.8 1.1v.2h1.3zm.8 0v2.4c0 1.7.8 2.3 2.1 2.3s2.1-.6 2.1-2.3v-2.4c0-1.7-.8-2.3-2.1-2.3s-2.1.6-2.1 2.3zm2.1-1.3c.6 0 .8.4.8 1.1v2.7c0 .7-.3 1.1-.8 1.1-.6 0-.8-.4-.8-1.1v-2.7c0-.7.2-1.1.8-1.1zm4.3.1h.7c.6 0 .8.3.8.8s-.2.8-.8.8h-.7v-1.6zm0 2.6h.8c.4 0 .7.4.7 1 0 .8-.3 1.1-.7 1.1h-.8v-2.1zm-1.2 3h2.4c1 0 1.5-.8 1.5-1.9 0-.9-.3-1.4-.9-1.6.5-.2.8-.8.8-1.4 0-.8-.4-1.6-1.6-1.6h-2.3v6.5h.1zm6-3h.8c.4 0 .8.4.8 1 0 .8-.3 1.1-.8 1.1h-.8v-2.1zm0-3.5H123v6.6h2.4c1 0 1.6-.8 1.6-2.1 0-.9-.7-1.9-1.7-1.9h-1.1v-2.6zm5 0h-1.3v6.6h1.3v-6.6zm.6 0l1.5 3.2-1.6 3.4h1.4l1-2.4.9 2.4h1.4l-1.7-3.4 1.6-3.2H133l-.8 2.1-.8-2.1h-1.6zM83.6 38.2h1.6v-1h-4.4v1h1.5v5.6h1.3v-5.6zm2.2-1.1v6.6h3.5v-1H87v-2h2v-1h-2v-1.5h2.3v-1h-3.5v-.1zm4.1 0l1.5 3.2-1.6 3.4h1.4l1-2.4 1 2.4h1.4l-1.7-3.4 1.6-3.2h-1.3l-.9 2.2-.8-2.2h-1.6zm6.5 0h-1.3v6.6h1.3v-3h1.7v3h1.2v-6.6h-1.2v2.5h-1.7v-2.5zm3.8 2.2v2.4c0 1.7.8 2.2 2.1 2.2s2.1-.5 2.1-2.2v-2.4c0-1.7-.8-2.3-2.1-2.3s-2.1.6-2.1 2.3zm2.1-1.2c.6 0 .8.4.8 1.1v2.7c0 .7-.3 1-.8 1-.6 0-.8-.3-.8-1v-2.7c0-.7.2-1.1.8-1.1zm3.6-1v3.2c0 2.4-.2 2.5-.6 2.5h-.3v.9c.2.1.4.1.8.1 1 0 1.4-1 1.4-3.2v-2.5h1.3v5.6h1.3v-6.6h-3.9zm4.8 2.2v2.4c0 1.7.8 2.2 2.1 2.2s2.1-.5 2.1-2.2v-2.4c0-1.7-.8-2.3-2.1-2.3-1.3.1-2.1.6-2.1 2.3zm2.1-1.2c.6 0 .8.4.8 1.1v2.7c0 .7-.3 1-.8 1-.6 0-.8-.3-.8-1v-2.7c-.1-.7.2-1.1.8-1.1zm3-1v6.6h1.2v-5.6h2.3v-1h-3.5zm4.1 0v6.6h1.4l1.9-4.7c-.1.6-.2 1.3-.2 2.3v2.4h1.2v-6.6h-1.4l-1.9 4.8c.2-.5.2-1.5.2-2.3v-2.5h-1.2zm5.1 0v6.6h1.4l1.8-4.7h.1c-.2.6-.2 1.3-.2 2.3v2.4h1.2v-6.6h-1.4L126 42c.1-.5.2-1.5.2-2.3v-2.5H125v-.1zm.8-1.7c0 .7.3 1.4 1.3 1.4 1.1 0 1.4-.7 1.4-1.4h-.7c0 .5-.3.8-.7.8-.4 0-.7-.3-.7-.8h-.6zM132.1 16.2c.4 0 .8.1 1.2.3.4.2.7.5.9.9.2.4.3.8.3 1.2 0 .4-.1.8-.3 1.2-.2.4-.5.7-.9.9-.4.2-.8.3-1.2.3-.4 0-.8-.1-1.2-.3-.4-.2-.7-.5-.9-.9-.2-.4-.3-.8-.3-1.2 0-.4.1-.8.3-1.2.2-.4.5-.7.9-.9.4-.2.8-.3 1.2-.3zm0 .4c-.3 0-.7.1-1 .3-.3.2-.6.4-.7.7-.2.3-.3.6-.3 1 0 .3.1.7.3 1 .2.3.4.6.7.7.3.2.6.3 1 .3.3 0 .7-.1 1-.3.3-.2.6-.4.7-.7.2-.3.3-.6.3-1 0-.3-.1-.7-.3-1-.2-.3-.4-.6-.7-.7-.3-.2-.7-.3-1-.3zm-.9 3.3v-2.5h.9c.3 0 .5 0 .6.1.1 0 .2.1.3.2.1.1.1.2.1.4s-.1.3-.2.5c-.1.1-.3.2-.5.2.1 0 .2.1.2.1.1.1.2.3.4.5l.3.5h-.5l-.2-.4c-.2-.3-.3-.5-.4-.6-.1-.1-.2-.1-.3-.1h-.2v1.1h-.5zm.4-1.5h.5c.2 0 .4 0 .5-.1.1-.1.1-.2.1-.3 0-.1 0-.1-.1-.2 0-.1-.1-.1-.2-.1h-.9v.7h.1z"/>
    </g>
</svg>
