<svg xmlns="http://www.w3.org/2000/svg" xmlns:xlink="http://www.w3.org/1999/xlink" width="0" height="0" style="position:absolute">
	
		<symbol id="close" viewBox="0 0 32 32">
			<path stroke="#4990E2" stroke-linecap="round" stroke-width="2" d="M7.429 7.429L24.57 24.57m.001-17.141L7.43 24.57" fill="none"></path>
		</symbol>
	
		<symbol id="filters" viewBox="0 0 32 32">
			<g fill="none" fill-rule="evenodd" stroke="#4990E2" stroke-linecap="round" stroke-width="2"><path d="M17.333 7.524H4m9.333 8H4m4 8H4"></path><path d="M22.667 24.485L28 19.333zm0-17.152v16m0 1.152l-5.334-5.152" stroke-linejoin="round"></path></g>
		</symbol>
	
		<symbol id="icon-arrow" viewBox="0 0 32 32">
			<path d="M11.136 16l9.667 10zm0 0l9.667-10" fill="none" stroke="#4990E2" stroke-linecap="round" stroke-linejoin="round" stroke-width="2"></path>
		</symbol>
	
		<symbol id="icon-arrow-right" viewBox="0 0 13 20">
			<path d="M6.667 18.485L12 13.333zm0-17.152v16m0 1.152l-5.334-5.152" fill="none" stroke="#4990E2" stroke-linecap="round" stroke-linejoin="round" stroke-width="2"></path>
		</symbol>
	
		<symbol id="icon-arrow-right-copy-2" viewBox="0 0 32 32">
			<path d="M25.864 16L16.197 6zM7 16h16.25m2.614 0l-9.667 10" fill="none" stroke="#4990E2" stroke-linecap="round" stroke-linejoin="round" stroke-width="2"></path>
		</symbol>
	
		<symbol id="icon-basket" viewBox="0 0 32 32">
			<g fill="none" fill-rule="evenodd" stroke="#4990E2" stroke-linecap="round"><path stroke-width="2" d="M6.374 13.224h18.702c.275 0 .434.047.354.344l-2.85 10.686c-.08.292-.294.64-.482.64H9.352c-.187 0-.401-.436-.481-.734L6.02 13.67c-.08-.292.078-.446.353-.446zM13.78 7l-5.446 6.224M17.67 7l5.447 6.224"></path><path d="M12 17.114v3.113m8-3.113v3.113m-4-3.113v3.113"></path></g>
		</symbol>
	
		<symbol id="icon-circle-thick" viewBox="0 0 32 32">
			<g fill="none" fill-rule="evenodd" stroke="#4990E2" stroke-linecap="round" stroke-width="2"><path d="M15.874 26.718c5.919 0 10.718-4.799 10.718-10.718 0-5.92-4.8-10.718-10.718-10.718-5.92 0-10.718 4.799-10.718 10.718 0 5.92 4.799 10.718 10.718 10.718z"></path><path stroke-linejoin="round" d="M11.435 15.65l3.042 3.12 5.984-5.642"></path></g>
		</symbol>
	
		<symbol id="icon-credit-card-2" viewBox="0 0 32 32">
			<g fill="none" fill-rule="evenodd" transform="translate(3 8)"><path stroke="#4990E2" stroke-linecap="round" stroke-linejoin="round" stroke-width="2" d="M27 15.429c0 .315-.288.571-.643.571H.643C.288 16 0 15.744 0 15.429V.57C0 .256.288 0 .643 0h25.714c.355 0 .643.256.643.571V15.43z"></path><rect width="4.889" height="4.444" x="3.778" y="3.889" fill="#4990E2" rx="1"></rect><path fill="#4990E2" d="M4.111 13.333h-.889a.444.444 0 1 1 0-.889h.89a.444.444 0 1 1 0 .89m2.221-.001h-.889a.444.444 0 1 1 0-.889h.89a.444.444 0 1 1 0 .89m2.222-.001h-.89a.444.444 0 1 1 0-.889h.89a.444.444 0 1 1 0 .89m4-.001h-.89a.444.444 0 1 1 0-.889h.89a.444.444 0 1 1 0 .89m2.222-.001h-.89a.444.444 0 1 1 0-.889h.89a.444.444 0 1 1 0 .89M17 13.333h-.889a.444.444 0 1 1 0-.889H17a.444.444 0 1 1 0 .89m2.556-.001h-.89a.444.444 0 1 1 0-.889h.89a.444.444 0 1 1 0 .89m2.222-.001h-.89a.444.444 0 1 1 0-.889h.89a.444.444 0 1 1 0 .89M24 13.333h-.889a.444.444 0 1 1 0-.889H24a.444.444 0 1 1 0 .89" opacity=".718"></path></g>
		</symbol>
	
		<symbol id="icon-edit" viewBox="0 0 32 32">
			<g fill="none" fill-rule="evenodd" stroke="#4990E2" stroke-linecap="round" stroke-linejoin="round" stroke-width="2"><path d="M21.988 19.564v7.994H5V10.57h6.995"></path><path d="M16.622 19.656l9.793-9.831-4.229-4.213-9.793 9.831-.782 5.015zm2.426-10.738l3.886 3.886"></path></g>
		</symbol>
	
		<symbol id="icon-error" viewBox="0 0 32 32">
			<defs><circle id="a" cx="10" cy="10" r="10"></circle><mask id="b" width="20" height="20" x="0" y="0" fill="#fff"><use xlink:href="#a"></use></mask></defs><g fill="none" fill-rule="evenodd" transform="translate(6 6)"><use stroke="#358ED7" stroke-width="4" mask="url(#b)" xlink:href="#a"></use><path fill="#358ED7" d="M7 5.996a4.69 4.69 0 0 1 .505-.386 3.623 3.623 0 0 1 1.284-.532A3.93 3.93 0 0 1 9.595 5c.393 0 .75.054 1.074.163.323.108.6.263.83.464.23.2.408.443.535.728.126.285.19.603.19.955 0 .344-.05.64-.15.891-.099.25-.224.469-.375.654a2.988 2.988 0 0 1-.492.481 82.78 82.78 0 0 1-.501.383c-.158.12-.295.237-.41.352a.696.696 0 0 0-.207.39l-.155.989H8.789l-.116-1.104a.301.301 0 0 1-.006-.058v-.058c0-.198.05-.371.149-.518.1-.147.223-.284.372-.413.15-.129.31-.254.481-.376a4.21 4.21 0 0 0 .481-.397 1.95 1.95 0 0 0 .373-.484c.1-.18.15-.393.15-.637 0-.162-.031-.308-.092-.437a.988.988 0 0 0-.254-.332 1.14 1.14 0 0 0-.39-.213 1.566 1.566 0 0 0-.491-.075 2.188 2.188 0 0 0-1.108.275c-.124.07-.23.133-.315.19a.433.433 0 0 1-.23.084.37.37 0 0 1-.353-.203L7 5.996zm1.28 7.988c0-.14.026-.274.078-.4a.955.955 0 0 1 .217-.325 1.067 1.067 0 0 1 .735-.298 1.025 1.025 0 0 1 .725.298 1.025 1.025 0 0 1 .298.725 1.035 1.035 0 0 1-.298.725A1.042 1.042 0 0 1 9.31 15a1.06 1.06 0 0 1-.735-.291.963.963 0 0 1-.217-.322 1.034 1.034 0 0 1-.078-.403z"></path></g>
		</symbol>
	
		<symbol id="icon-filters" viewBox="0 0 32 32">
			<defs><circle id="a" cx="7" cy="3" r="3"></circle><mask id="d" width="6" height="6" x="0" y="0" fill="#fff"><use xlink:href="#a"></use></mask><circle id="b" cx="14" cy="11" r="3"></circle><mask id="e" width="6" height="6" x="0" y="0" fill="#fff"><use xlink:href="#b"></use></mask><circle id="c" cx="7" cy="19" r="3"></circle><mask id="f" width="6" height="6" x="0" y="0" fill="#fff"><use xlink:href="#c"></use></mask></defs><g fill="none" fill-rule="evenodd" stroke="#4990E2" transform="translate(6 5)"><path stroke-linecap="round" stroke-linejoin="round" stroke-width="2" d="M0 3h4m6 0h11m0 8h-4m-6 0H0m0 8h4m6 0h11"></path><use stroke-width="4" mask="url(#d)" xlink:href="#a"></use><use stroke-width="4" mask="url(#e)" xlink:href="#b"></use><use stroke-width="4" mask="url(#f)" xlink:href="#c"></use></g>
		</symbol>
	
		<symbol id="icon-list-search" viewBox="0 0 32 32">
			<path d="M16.6 20.4l5.6 5.6m-2.4-12c0 4.418-3.761 8-8.4 8C6.76 22 3 18.418 3 14s3.76-8 8.4-8c4.639 0 8.4 3.582 8.4 8zm2.4-5h7.2m-7.2 4h7.2m-7.2 4h7.2" fill="none" stroke="#4990E2" stroke-linecap="round" stroke-width="2"></path>
		</symbol>
	
		<symbol id="icon-minus" viewBox="0 0 32 32">
			<path stroke="#4990E2" stroke-linecap="round" stroke-width="2" d="M28.122 16H3.878" fill="none"></path>
		</symbol>
	
		<symbol id="icon-minus-circle" viewBox="0 0 32 32">
			<g fill="none" fill-rule="evenodd" stroke-linecap="round" stroke-width="2"><path stroke="#358ED7" d="M16.5 27C22.299 27 27 22.299 27 16.5S22.299 6 16.5 6 6 10.701 6 16.5 10.701 27 16.5 27z"></path><path stroke="#4990E2" stroke-linejoin="round" d="M16 20v-8 4.121M12 16h8-4"></path></g>
		</symbol>
	
		<symbol id="icon-plus" viewBox="0 0 32 32">
			<path stroke="#4990E2" stroke-linecap="round" stroke-width="2" d="M16 3.878v24.244M28.122 16H3.878" fill="none"></path>
		</symbol>
	
		<symbol id="icon-plus-circle" viewBox="0 0 32 32">
			<g fill="none" fill-rule="evenodd" stroke-linecap="round" stroke-width="2"><path stroke="#358ED7" d="M15.787 25.744c5.382 0 9.744-4.363 9.744-9.744 0-5.381-4.362-9.744-9.744-9.744-5.38 0-9.743 4.363-9.743 9.744 0 5.381 4.362 9.744 9.743 9.744z"></path><path stroke="#4990E2" stroke-linejoin="round" d="M11.641 16h8.205-4.102"></path></g>
		</symbol>
	
		<symbol id="icon-rubish-bin" viewBox="0 0 32 32">
			<defs><path id="a" d="M1 3h16v18H1z"></path><mask id="b" width="16" height="18" x="0" y="0" fill="#fff"><use xlink:href="#a"></use></mask></defs><g fill="none" fill-rule="evenodd" stroke="#4990E2" transform="translate(7 6)"><use stroke-width="4" mask="url(#b)" xlink:href="#a"></use><path stroke-linecap="round" stroke-width="2" d="M0 4h18.136M12.41 2.864a.477.477 0 0 1-.478.477H6.205a.477.477 0 0 1-.478-.477V.477c0-.263.214-.477.478-.477h5.727c.263 0 .477.214.477.477v2.387zm-7.16 4.25v8.59m3.818-8.59v8.59m3.818-8.59v8.59"></path></g>
		</symbol>
	
		<symbol id="icon-search" viewBox="0 0 32 32">
			<path d="M19.6 20.4l5.6 5.6m-2.4-12c0 4.418-3.761 8-8.4 8C9.76 22 6 18.418 6 14s3.76-8 8.4-8c4.639 0 8.4 3.582 8.4 8z" fill="none" stroke="#4990E2" stroke-linecap="round" stroke-width="2"></path>
		</symbol>
	
		<symbol id="icon-share" viewBox="0 0 32 32">
			<path d="M7 21.09v4.857h17.49V21.09m-8.756-.244L15.69 7.243l6.614 6.334M15.69 7.243l-6.504 6.322" fill="none" stroke="#4990E2" stroke-linecap="round" stroke-linejoin="round" stroke-width="2"></path>
		</symbol>
	
		<symbol id="icon-thick-check" viewBox="0 0 32 32">
			<path d="M2.348 15.942l8.79 9.23M29.552 6L11.217 25.141" fill="none" stroke="#4990E2" stroke-linecap="round" stroke-width="2"></path>
		</symbol>
	
		<symbol id="icon-user-copy" viewBox="0 0 32 32">
			<path d="M25.26 22.522c0-3.362-4.087-6.087-9.13-6.087-5.042 0-9.13 2.725-9.13 6.087m9.565-6.087a5.217 5.217 0 1 0 0-10.435 5.217 5.217 0 0 0 0 10.435zm8.695 6.087v2.854c0 .255-.09.624-.355.624H7.584c-.26 0-.584-.372-.584-.624v-2.854" fill="none" stroke="#4990E2" stroke-linecap="round" stroke-width="2"></path>
		</symbol>
	
		<symbol id="icon-warning" viewBox="0 0 32 32">
			<defs><circle id="a" cx="10" cy="10" r="10"></circle><mask id="b" width="20" height="20" x="0" y="0" fill="#fff"><use xlink:href="#a"></use></mask></defs><g fill="none" fill-rule="evenodd" transform="translate(6 6)"><use stroke="#358ED7" stroke-width="4" mask="url(#b)" xlink:href="#a"></use><path fill="#358ED7" d="M10.887 5v3.984c0 .422-.02.837-.062 1.243a27.58 27.58 0 0 1-.167 1.292H9.494c-.07-.455-.125-.886-.167-1.292a12.36 12.36 0 0 1-.062-1.243V5h1.622zM9 14.123c0-.144.027-.28.08-.41a.982.982 0 0 1 .223-.335 1.097 1.097 0 0 1 .756-.306 1.054 1.054 0 0 1 .745.306 1.054 1.054 0 0 1 .306.745c0 .149-.028.287-.083.415a1.008 1.008 0 0 1-.557.55c-.13.053-.267.08-.411.08a1.089 1.089 0 0 1-.756-.3.99.99 0 0 1-.223-.33 1.063 1.063 0 0 1-.08-.415z"></path></g>
		</symbol>
	
		<symbol id="logo" viewBox="0 0 145 60">
			<g fill="none" fill-rule="evenodd"><path fill="#ED1B2F" d="M0 0h145v60H0z"></path><path fill="#FFF" d="M70.5 43.8v-.9H68V17.1h.8c3.5 0 4.7 5.3 5 8H75l-.2-8.9h-18l-.2 8.9h1.1c.7-4.9 2.3-8 5.1-8h.7v25.8H61v.9h9.5zM39.8 16.2v.9h2.5v2.5c-3.7-.2-9.7 1.2-9.7 10.7 0 10.4 6.5 10.9 9.7 10.7v2.6h-2.5v.9h9.5v-.9h-2.5V41c3.1.2 9.7-.5 9.7-10.7 0-9.5-6-10.8-9.7-10.7v-2.5h2.5v-.9h-9.5zm7 4.3h.8c3.2 0 3.7 2.9 3.7 4.7v9.7c0 2.6-.6 5.1-3.6 5.1h-1V20.5h.1zM42.3 40h-.7c-3 0-3.8-2.1-3.8-5.1v-9.7c0-4.5 2.8-4.7 3.9-4.7h.7V40h-.1z"></path><path fill="#FFF" d="M25.3 42.9h-6.9V17.1h2.1v-.9h-9.1v.9h2.5v25.8h-2.5v.9h15.8c.9 0 3.7-.3 5.3 6.4h.9l-.4-7.3h-3.1V17.1h2.5v-.9h-9.1v.9h2.1v25.8h-.1zm57.1-26.6h-1.3v6.6h3.5v1.4h1.1v-2.4h-.3v-5.6h-1.3v5.6h-1.7v-5.6zm4 0v6.6H90v-1h-2.3v-2h2v-1h-2v-1.5H90v-1h-3.6v-.1zm5.6 0h-1.3v6.6H92v-3h1.6v3h1.3v-6.6h-1.3v2.5H92v-2.5zm6.3 1h1.5v-1h-4.4v1H97v5.6h1.3v-5.6zm3.4 2.9h1.1c1.1 0 1.8-.8 1.8-1.9 0-1.1-.7-1.9-1.8-1.9h-2.4V23h1.3v-2.8zm0-3h.7c.6 0 .9.4.9 1s-.3 1-.9 1h-.7v-2zm-18.2 9.6v.7h-.3c-1.1 0-2.2.8-2.2 2.5 0 1.9 1.1 2.5 2.2 2.5h.3v.8h1.3v-.8h.3c1.1 0 2.2-.7 2.2-2.5 0-1.7-1.1-2.5-2.2-2.5h-.3v-.7h-1.3zm0 4.7h-.3c-.6 0-.9-.5-.9-1.5 0-.8.3-1.5.9-1.5h.3v3zm1.2-3.1h.3c.7 0 1 .7 1 1.5 0 1-.3 1.5-1 1.5h-.3v-3zm3.3-1.6v6.6h1.4l1.9-4.8c-.2.6-.2 1.3-.2 2.3v2.5h1.2v-6.6h-1.4L89 31.5c.1-.5.2-1.5.2-2.3v-2.4H88zm6.4 0h-1.2v6.6h1.2v-3h1.7v3h1.3v-6.6h-1.3v2.5h-1.7v-2.5zm3.4 6.5h1.4l.3-1.8h1.4l.3 1.8h1.4l-1.5-6.6h-1.6l-1.7 6.6zm1.9-2.7l.6-3.1.5 3.1h-1.1zm4.7-3.8h-1.3v6.6h1.3v-3h1.6v3h1.3v-6.6H106v2.5h-1.6v-2.5zm7.8 2.1v-.3c0-1.2-.7-1.9-1.9-1.9-1.3 0-2.1.8-2.1 2.3v2.4c0 1.2.4 2.3 2 2.3s2-1.1 2-2.3V31h-1.3v.3c0 .8-.3 1.2-.8 1.2s-.7-.3-.7-1.2v-2.6c0-.8.2-1.1.7-1.1.6 0 .8.3.8 1.1v.2h1.3zm.8 0v2.4c0 1.7.8 2.3 2.1 2.3s2.1-.6 2.1-2.3v-2.4c0-1.7-.8-2.3-2.1-2.3s-2.1.6-2.1 2.3zm2.1-1.3c.6 0 .8.4.8 1.1v2.7c0 .7-.3 1.1-.8 1.1-.6 0-.8-.4-.8-1.1v-2.7c0-.7.2-1.1.8-1.1zm4.3.1h.7c.6 0 .8.3.8.8s-.2.8-.8.8h-.7v-1.6zm0 2.6h.8c.4 0 .7.4.7 1 0 .8-.3 1.1-.7 1.1h-.8v-2.1zm-1.2 3h2.4c1 0 1.5-.8 1.5-1.9 0-.9-.3-1.4-.9-1.6.5-.2.8-.8.8-1.4 0-.8-.4-1.6-1.6-1.6h-2.3v6.5h.1zm6-3h.8c.4 0 .8.4.8 1 0 .8-.3 1.1-.8 1.1h-.8v-2.1zm0-3.5H123v6.6h2.4c1 0 1.6-.8 1.6-2.1 0-.9-.7-1.9-1.7-1.9h-1.1v-2.6zm5 0h-1.3v6.6h1.3v-6.6zm.6 0l1.5 3.2-1.6 3.4h1.4l1-2.4.9 2.4h1.4l-1.7-3.4 1.6-3.2H133l-.8 2.1-.8-2.1h-1.6zM83.6 38.2h1.6v-1h-4.4v1h1.5v5.6h1.3v-5.6zm2.2-1.1v6.6h3.5v-1H87v-2h2v-1h-2v-1.5h2.3v-1h-3.5v-.1zm4.1 0l1.5 3.2-1.6 3.4h1.4l1-2.4 1 2.4h1.4l-1.7-3.4 1.6-3.2h-1.3l-.9 2.2-.8-2.2h-1.6zm6.5 0h-1.3v6.6h1.3v-3h1.7v3h1.2v-6.6h-1.2v2.5h-1.7v-2.5zm3.8 2.2v2.4c0 1.7.8 2.2 2.1 2.2s2.1-.5 2.1-2.2v-2.4c0-1.7-.8-2.3-2.1-2.3s-2.1.6-2.1 2.3zm2.1-1.2c.6 0 .8.4.8 1.1v2.7c0 .7-.3 1-.8 1-.6 0-.8-.3-.8-1v-2.7c0-.7.2-1.1.8-1.1zm3.6-1v3.2c0 2.4-.2 2.5-.6 2.5h-.3v.9c.2.1.4.1.8.1 1 0 1.4-1 1.4-3.2v-2.5h1.3v5.6h1.3v-6.6h-3.9zm4.8 2.2v2.4c0 1.7.8 2.2 2.1 2.2s2.1-.5 2.1-2.2v-2.4c0-1.7-.8-2.3-2.1-2.3-1.3.1-2.1.6-2.1 2.3zm2.1-1.2c.6 0 .8.4.8 1.1v2.7c0 .7-.3 1-.8 1-.6 0-.8-.3-.8-1v-2.7c-.1-.7.2-1.1.8-1.1zm3-1v6.6h1.2v-5.6h2.3v-1h-3.5zm4.1 0v6.6h1.4l1.9-4.7c-.1.6-.2 1.3-.2 2.3v2.4h1.2v-6.6h-1.4l-1.9 4.8c.2-.5.2-1.5.2-2.3v-2.5h-1.2zm5.1 0v6.6h1.4l1.8-4.7h.1c-.2.6-.2 1.3-.2 2.3v2.4h1.2v-6.6h-1.4L126 42c.1-.5.2-1.5.2-2.3v-2.5H125v-.1zm.8-1.7c0 .7.3 1.4 1.3 1.4 1.1 0 1.4-.7 1.4-1.4h-.7c0 .5-.3.8-.7.8-.4 0-.7-.3-.7-.8h-.6zm6.3-19.2c.4 0 .8.1 1.2.3.4.2.7.5.9.9.2.4.3.8.3 1.2 0 .4-.1.8-.3 1.2-.2.4-.5.7-.9.9-.4.2-.8.3-1.2.3-.4 0-.8-.1-1.2-.3-.4-.2-.7-.5-.9-.9-.2-.4-.3-.8-.3-1.2 0-.4.1-.8.3-1.2.2-.4.5-.7.9-.9.4-.2.8-.3 1.2-.3zm0 .4c-.3 0-.7.1-1 .3-.3.2-.6.4-.7.7-.2.3-.3.6-.3 1 0 .3.1.7.3 1 .2.3.4.6.7.7.3.2.6.3 1 .3.3 0 .7-.1 1-.3.3-.2.6-.4.7-.7.2-.3.3-.6.3-1 0-.3-.1-.7-.3-1-.2-.3-.4-.6-.7-.7-.3-.2-.7-.3-1-.3zm-.9 3.3v-2.5h.9c.3 0 .5 0 .6.1.1 0 .2.1.3.2.1.1.1.2.1.4s-.1.3-.2.5c-.1.1-.3.2-.5.2.1 0 .2.1.2.1.1.1.2.3.4.5l.3.5h-.5l-.2-.4c-.2-.3-.3-.5-.4-.6-.1-.1-.2-.1-.3-.1h-.2v1.1h-.5zm.4-1.5h.5c.2 0 .4 0 .5-.1.1-.1.1-.2.1-.3 0-.1 0-.1-.1-.2 0-.1-.1-.1-.2-.1h-.9v.7h.1z"></path></g>
		</symbol>
	
</svg>
